<svg width="44" height="42" viewBox="0 0 44 42" fill="none" xmlns="http://www.w3.org/2000/svg">
<path d="M40.9483 15.3384C39.8046 14.358 38.3591 13.8175 36.8886 13.8175H35.5185H30.5915H28.2536V7.72155C28.2536 4.80553 27.3864 2.68137 25.6644 1.4119C22.9495 -0.574005 19.2668 0.544637 19.1034 0.594913C18.475 0.796017 18.0476 1.37419 18.0476 2.02778V9.38066C18.0476 11.6179 16.9792 13.5159 14.8551 15.0367C13.2462 16.1931 11.5997 16.721 11.386 16.7838L11.2352 16.8215C10.6696 16.1805 9.84004 15.7783 8.90993 15.7783H3.17846C1.46907 15.7783 0.0739136 17.1734 0.0739136 18.8828V37.6861C0.0739136 39.3955 1.46907 40.7906 3.17846 40.7906H8.93507C9.68921 40.7906 10.3931 40.5141 10.921 40.0616C12.0773 41.1928 13.6484 41.8841 15.3453 41.8841H21.0642H21.6549H33.3567C35.1666 41.8841 36.7629 41.4442 37.9821 40.6272C39.5406 39.5714 40.5084 37.8997 40.7849 35.763L43.1102 21.3087C43.4747 19.0714 42.6452 16.7838 40.9483 15.3384ZM9.02305 37.6861C9.02305 37.7364 8.98534 37.7741 8.93507 37.7741H3.17846C3.12818 37.7741 3.09048 37.7364 3.09048 37.6861V18.8828C3.09048 18.8326 3.12818 18.7948 3.17846 18.7948H8.93507C8.98534 18.7948 9.02305 18.8326 9.02305 18.8828V37.6861ZM40.1314 20.8436L37.8061 35.3231C37.8061 35.3357 37.8061 35.3608 37.7935 35.3859C37.693 36.2532 37.3662 38.8801 33.3567 38.8801H21.6549H21.0642H15.3453C13.7364 38.8801 12.3287 37.6735 12.0773 36.0772C12.0648 36.0144 12.0522 35.9515 12.0396 35.9013V19.7375L12.1276 19.7124C12.1527 19.7124 12.1653 19.6998 12.1904 19.6998C12.2784 19.6747 14.4152 19.0714 16.5393 17.5505C19.493 15.4515 21.0642 12.6235 21.0642 9.38066V3.27211C21.8937 3.18413 23.0375 3.22184 23.8796 3.83772C24.7846 4.50388 25.2371 5.81106 25.2371 7.70898V15.3132C25.2371 16.1428 25.9158 16.8215 26.7454 16.8215H30.5915H35.5185H36.8886C37.6427 16.8215 38.3843 17.1106 38.9876 17.6134C39.8925 18.3926 40.3199 19.6244 40.1314 20.8436Z" fill="white"/>
</svg>
