<svg width="54" height="32" viewBox="0 0 54 32" fill="none" xmlns="http://www.w3.org/2000/svg">
<path d="M50.9222 7.34779C49.3426 5.6365 47.0927 4.6911 44.5916 4.6911H38.5722V1.43605C38.5722 0.646223 37.926 0 37.1361 0H8.46299C7.67316 0 7.02694 0.646223 7.02694 1.43605V6.43829H1.43831C0.648481 6.43829 0.0022583 7.08452 0.0022583 7.87435C0.0022583 8.66417 0.648481 9.3104 1.43831 9.3104H8.42709C8.43905 9.3104 8.45102 9.3104 8.46299 9.3104C8.46299 9.3104 8.46299 9.3104 8.47496 9.3104C9.26478 9.3104 9.91101 8.66417 9.91101 7.87435V2.8721H35.7121V6.12715V25.3822H22.1892C22.1294 25.3822 22.0696 25.3822 22.0097 25.3942C21.2917 23.623 19.5565 22.3665 17.534 22.3665C15.4996 22.3665 13.7644 23.635 13.0583 25.4181C12.9506 25.3942 12.8549 25.3822 12.7472 25.3822H9.91101V20.368C9.91101 19.5782 9.26478 18.9319 8.47496 18.9319C8.45102 18.9319 8.42709 18.9319 8.40315 18.9319C8.37922 18.9319 8.36725 18.9319 8.34332 18.9319H1.43831C0.648481 18.9319 0.0022583 19.5782 0.0022583 20.368C0.0022583 21.1578 0.648481 21.804 1.43831 21.804H7.02694V26.8063C7.02694 27.5961 7.67316 28.2423 8.46299 28.2423H12.7352C12.7711 28.2423 12.7951 28.2423 12.831 28.2423C13.3097 30.3964 15.2364 32 17.534 32C19.8317 32 21.7465 30.3964 22.2371 28.2423H37.1481H39.4458C39.9364 30.3844 41.8512 32 44.1488 32C46.4465 32 48.3613 30.3964 48.8519 28.2423H52.0591C52.8489 28.2423 53.4951 27.5961 53.4951 26.8063V14.8751C53.4951 11.7756 52.5976 9.16679 50.9222 7.34779ZM17.534 29.1399C16.457 29.1399 15.5834 28.2663 15.5834 27.1892C15.5834 26.1122 16.457 25.2386 17.534 25.2386C18.6111 25.2386 19.4847 26.1122 19.4847 27.1892C19.4847 28.2663 18.6111 29.1399 17.534 29.1399ZM44.1488 29.1399C43.0718 29.1399 42.1982 28.2663 42.1982 27.1892C42.1982 26.1122 43.0718 25.2386 44.1488 25.2386C45.2259 25.2386 46.0995 26.1122 46.0995 27.1892C46.0875 28.2663 45.2139 29.1399 44.1488 29.1399ZM50.623 25.3822H48.6126C47.8945 23.623 46.1593 22.3665 44.1488 22.3665C42.1384 22.3665 40.4031 23.6111 39.6851 25.3822H38.5842V7.5632H44.6036C48.3732 7.5632 50.623 10.3037 50.623 14.8871V25.3822Z" fill="white"/>
</svg>
